<?xml version="1.0" encoding="UTF-8"?>
<svg version="1.1" xmlns="http://www.w3.org/2000/svg" width="600" height="456">
<path d="M0 0 C23.36009074 10.56174316 44.469853 26.40298949 54 51 C57.67140412 61.16457998 57.39552739 71.40611898 57.28125 82.05712891 C57.24977397 85.02128576 57.24023621 87.98491037 57.234375 90.94921875 C57.22521532 92.84115234 57.21484288 94.73308053 57.203125 96.625 C57.19887512 97.50728271 57.19462524 98.38956543 57.19024658 99.29858398 C57.17583527 100.53137085 57.17583527 100.53137085 57.16113281 101.7890625 C57.15089081 102.86728271 57.15089081 102.86728271 57.14044189 103.96728516 C56.99454802 106.07891032 56.57368204 107.9662768 56 110 C57.81757812 110.34224609 57.81757812 110.34224609 59.671875 110.69140625 C66.10181659 112.12598987 72.12280348 114.55302451 78.25 116.9375 C79.51494432 117.42380844 80.78016807 117.90939059 82.0456543 118.39428711 C84.68512217 119.40657439 87.32335332 120.42197904 89.96044922 121.44042969 C95.94438097 123.75140294 101.93201897 126.05252045 107.92492676 128.34011841 C109.77014872 129.046292 111.61313135 129.75830816 113.45605469 130.47045898 C123.3174858 134.96062909 123.3174858 134.96062909 133.5625 135.125 C134.366875 134.75375 135.17125 134.3825 136 134 C141.93002317 133.53401592 146.60563891 134.84614078 152.125 136.75 C152.91003906 137.00265625 153.69507813 137.2553125 154.50390625 137.515625 C159.00120588 139.03242083 162.55407642 140.59559357 166 144 C166 144.66 166 145.32 166 146 C165.28714844 146.12375 164.57429688 146.2475 163.83984375 146.375 C157.35541158 147.77137839 153.48421445 149.44432719 149.4296875 154.76953125 C142.23335433 165.99659748 141.00320733 177.95525958 143 191 C144.99790624 199.68519862 148.18979113 207.56413652 155.625 212.875 C156.800625 213.431875 156.800625 213.431875 158 214 C158.763125 214.391875 159.52625 214.78375 160.3125 215.1875 C161.1478125 215.5896875 161.1478125 215.5896875 162 216 C159.07478183 218.92521817 155.9806166 219.85649945 151.89453125 220.1953125 C143.07511478 219.60021017 131.64859172 216.03238078 125 210 C123.34292463 208.05507586 121.84863678 206.08400463 120.421875 203.96484375 C117.06231049 199.32236862 113.51593296 197.04266786 108.33203125 194.63671875 C107.6723938 194.32784729 107.01275635 194.01897583 106.33312988 193.70074463 C104.16348481 192.68770115 101.98819267 191.68748074 99.8125 190.6875 C98.29227412 189.98116907 96.77234004 189.2742098 95.25268555 188.56665039 C83.31142773 183.01880079 71.32947513 177.55671431 59.3293457 172.13745117 C58.69039368 171.8487616 58.05144165 171.56007202 57.39312744 171.26263428 C56.13465752 170.69426831 54.87591394 170.12650784 53.61688232 169.55938721 C50.38251757 168.09778576 47.16375091 166.6094312 43.96069336 165.08032227 C43.29454514 164.76370132 42.62839691 164.44708038 41.94206238 164.12086487 C40.10329945 163.2441995 38.2678387 162.36061751 36.43261719 161.4765625 C30.6718143 158.99851585 25.29267058 157.44601771 19 158 C14.57653522 159.82730035 10.7967627 162.23242816 6.81933594 164.86425781 C3.73940895 166.78693902 0.48417112 168.30138796 -2.8125 169.8125 C-3.43962891 170.10189453 -4.06675781 170.39128906 -4.71289062 170.68945312 C-9.39191277 172.80816199 -14.0816911 174.53313594 -19 176 C-20.77490546 174.22509454 -20.23499973 171.62215098 -20.31640625 169.21484375 C-20.37924805 167.46010742 -20.37924805 167.46010742 -20.44335938 165.66992188 C-20.48267578 164.43822266 -20.52199219 163.20652344 -20.5625 161.9375 C-20.60568359 160.70193359 -20.64886719 159.46636719 -20.69335938 158.19335938 C-20.79984198 155.12902665 -20.90185424 152.06460927 -21 149 C-23.31 149.33 -25.62 149.66 -28 150 C-28 159.24 -28 168.48 -28 178 C-35 181 -35 181 -42 182 C-42 172.76 -42 163.52 -42 154 C-45.465 154.99 -45.465 154.99 -49 156 C-50.32 156 -51.64 156 -53 156 C-52.99476318 156.80743652 -52.98952637 157.61487305 -52.98413086 158.44677734 C-52.96340071 162.08951038 -52.95035251 165.73223102 -52.9375 169.375 C-52.92912109 170.64601563 -52.92074219 171.91703125 -52.91210938 173.2265625 C-52.90888672 174.43828125 -52.90566406 175.65 -52.90234375 176.8984375 C-52.89710693 178.01911621 -52.89187012 179.13979492 -52.88647461 180.29443359 C-53 183 -53 183 -54 185 C-56.31 185 -58.62 185 -61 185 C-61 176.09 -61 167.18 -61 158 C-63.371875 158.309375 -65.74375 158.61875 -68.1875 158.9375 C-119.33096436 164.85360202 -180.38784168 158.53665688 -222.58984375 125.98828125 C-226.86807378 122.45891482 -231.01305679 118.857497 -235 115 C-235.7734375 114.25234375 -236.546875 113.5046875 -237.34375 112.734375 C-249.33929075 100.32802806 -255.56038397 85.0998111 -255.49047852 67.90844727 C-254.84129414 49.01106502 -244.20324483 33.67546112 -231 21 C-221.75201826 12.66574101 -211.23310469 6.28760025 -200 1 C-197.23115099 3.76884901 -198.32633619 11.08930217 -198.26123047 14.78637695 C-198.40172268 21.21362355 -199.13443299 24.53535337 -203.625 29.1875 C-204.53636719 30.00347656 -205.44773438 30.81945312 -206.38671875 31.66015625 C-210.3322623 35.19286266 -212.6514048 39.3028096 -215 44 C-215.33902344 44.65742188 -215.67804688 45.31484375 -216.02734375 45.9921875 C-220.03311482 55.48051161 -219.38756212 68.32551365 -216.0625 77.875 C-206.59103437 98.90800328 -187.27113214 110.41729102 -166.9375 119.25 C-145.18385028 127.49250237 -122.41756198 130.41137734 -99.3125 130.3125 C-98.42881744 130.31067719 -97.54513489 130.30885437 -96.63467407 130.30697632 C-83.87969165 130.26265059 -71.46870183 129.93081102 -59 127 C-57.82268311 126.73461426 -57.82268311 126.73461426 -56.62158203 126.46386719 C-30.30520874 120.4185666 -2.26866758 109.84086452 13.41796875 86.55859375 C20.06561713 75.80745872 22.645224 65.118926 20.3125 52.5 C19.21715544 48.01468394 17.21357748 44.11120234 15.0234375 40.06640625 C14 38 14 38 14 36 C13.34 36 12.68 36 12 36 C11.09510646 34.60785609 10.20105349 33.2078761 9.3515625 31.78125 C8.05724208 29.88270152 8.05724208 29.88270152 5.9609375 28.59375 C3.10450619 26.53469704 1.69713467 25.13565835 0 22 C-1.04400479 14.74275586 -0.48898594 7.28965197 0 0 Z M27.5 117.1875 C23.43044434 121.41780734 21.92657092 124.4334155 21.875 130.3125 C21.91625 131.529375 21.9575 132.74625 22 134 C22.99 134.33 23.98 134.66 25 135 C25.53625 134.030625 26.0725 133.06125 26.625 132.0625 C29 129 29 129 31.79614258 128.18579102 C35.4019032 127.97669372 37.33135467 128.55433496 40.63671875 129.96484375 C41.75103271 130.42777832 42.86534668 130.89071289 44.01342773 131.36767578 C45.22587158 131.88571777 46.43831543 132.40375977 47.6875 132.9375 C50.35529579 134.04775252 53.02877675 135.14391939 55.703125 136.23828125 C56.42173203 136.53337585 57.14033905 136.82847046 57.88072205 137.13250732 C67.81418544 141.1861958 77.88017077 144.89236218 87.9375 148.625 C89.35644058 149.15418533 89.35644058 149.15418533 90.80404663 149.69406128 C93.52314942 150.70805861 96.24368698 151.71809184 98.96484375 152.7265625 C99.77415344 153.02817795 100.58346313 153.3297934 101.41729736 153.64054871 C105.90457795 155.29474505 110.38355149 156.74903192 115 158 C116.65 154.37 118.3 150.74 120 147 C111.31920333 143.31872147 102.56977337 139.91413763 93.72265625 136.65625 C92.38080679 136.15994703 91.03904743 135.6634004 89.69737244 135.16662598 C86.1966675 133.87104358 82.69494734 132.57822971 79.19293213 131.28619385 C73.59470758 129.22027978 67.99803194 127.15017457 62.40142632 125.07987976 C60.47393026 124.36732588 58.54597479 123.65602785 56.61793518 122.94494629 C49.55981295 120.33708659 42.53142745 117.66900306 35.53245544 114.90588379 C31.36249741 113.4142495 30.53045193 114.17630942 27.5 117.1875 Z " fill="#45ADE2" transform="translate(340,176)"/>
<path d="M0 0 C0.33 35.97 0.66 71.94 1 109 C3.64 105.37 6.28 101.74 9 98 C9.99 97.01 10.98 96.02 12 95 C14.6263521 102.26109111 14.2746288 108.3259184 11.375 115.5 C2.69854902 133.31771184 -15.05205563 142.43067922 -32.9375 148.8125 C-72.74771044 162.38757176 -120.5885642 160.19138211 -158.6953125 142.30859375 C-170.91986045 136.08072121 -183.13125253 127.18770168 -188.171875 113.9140625 C-189.96670394 107.59829651 -190.19521885 102.37450056 -189 96 C-187.515 95.505 -187.515 95.505 -186 95 C-185.60167969 95.68707031 -185.20335937 96.37414062 -184.79296875 97.08203125 C-184.26316406 97.98308594 -183.73335937 98.88414062 -183.1875 99.8125 C-182.66542969 100.70582031 -182.14335937 101.59914063 -181.60546875 102.51953125 C-179.96400061 105.24540079 -179.96400061 105.24540079 -177 108 C-176.67 83.25 -176.34 58.5 -176 33 C-170.43125 30.195 -164.8625 27.39 -159.125 24.5 C-157.36816895 23.61248047 -155.61133789 22.72496094 -153.80126953 21.81054688 C-152.41194314 21.11296393 -151.02246766 20.41567777 -149.6328125 19.71875 C-148.90892334 19.35168945 -148.18503418 18.98462891 -147.43920898 18.60644531 C-142.2281436 16 -142.2281436 16 -140 16 C-139.67 53.29 -139.34 90.58 -139 129 C-136.03 129.66 -133.06 130.32 -130 131 C-130.00888245 129.51804138 -130.01776489 128.03608276 -130.0269165 126.50921631 C-130.10791841 112.55960131 -130.16816537 98.61001681 -130.20724869 84.66022873 C-130.22787697 77.48807075 -130.25600236 70.31608829 -130.30175781 63.14404297 C-130.3416178 56.89311934 -130.36743089 50.64232283 -130.37635398 44.39127564 C-130.3815703 41.08108076 -130.39592954 37.77133449 -130.42292023 34.46123505 C-130.45185499 30.76657837 -130.45596 27.07268099 -130.45410156 23.37792969 C-130.47567322 21.73039452 -130.47567322 21.73039452 -130.49768066 20.04957581 C-130.49218201 19.04279282 -130.48668335 18.03600983 -130.48101807 16.99871826 C-130.48470524 16.12485851 -130.48839241 15.25099876 -130.49219131 14.35065842 C-129.83042053 11.19010474 -128.44523907 10.04682102 -126 8 C-114.2411992 0.34021779 -114.2411992 0.34021779 -107.70556641 1.35693359 C-102.76648046 2.9109103 -96.70547075 5.29452925 -93 9 C-92.89174421 10.64450663 -92.85314732 12.29363889 -92.84178162 13.94166565 C-92.8319928 15.01163788 -92.82220398 16.08161011 -92.81211853 17.18400574 C-92.80636307 18.36795425 -92.8006076 19.55190277 -92.79467773 20.77172852 C-92.78477814 22.010578 -92.77487854 23.24942749 -92.76467896 24.52581787 C-92.73842776 27.93266974 -92.71659204 31.33949737 -92.69667697 34.74638867 C-92.67485558 38.30319609 -92.64744814 41.85996024 -92.62062073 45.41673279 C-92.57064165 52.15633442 -92.52572224 58.89596001 -92.48259836 65.63560861 C-92.43327046 73.30661472 -92.37833589 80.97757742 -92.32291877 88.64854157 C-92.2090187 104.43232097 -92.10219723 120.21614023 -92 136 C-89.03 136.33 -86.06 136.66 -83 137 C-83 96.41 -83 55.82 -83 14 C-77.2876387 14.95206022 -72.75047096 16.6475132 -67.56640625 19.00390625 C-61.31496232 21.67579128 -57.47281968 20.51587518 -51.30664062 18.44580078 C-50.49924438 18.17518829 -49.69184814 17.90457581 -48.85998535 17.62576294 C-48.24619019 17.41926117 -47.63239502 17.2127594 -47 17 C-45.81227288 35.01476318 -45.84518524 53.02180776 -45.86962891 71.06616211 C-45.87533867 75.33819043 -45.87202448 79.61015605 -45.86605644 83.88218212 C-45.8623999 87.2361547 -45.86361224 90.59011301 -45.86618423 93.94408607 C-45.86683879 95.51733724 -45.86607837 97.09058983 -45.86370468 98.66383934 C-45.85056173 109.80827347 -46.28227258 120.87880589 -47 132 C-43.7 131.01 -40.4 130.02 -37 129 C-36.67 90.72 -36.34 52.44 -36 13 C-28.91077542 9.84923352 -21.875262 6.96774168 -14.625 4.25 C-13.54605469 3.83878906 -12.46710938 3.42757812 -11.35546875 3.00390625 C-9.80666016 2.42189453 -9.80666016 2.42189453 -8.2265625 1.828125 C-7.29408691 1.4765332 -6.36161133 1.12494141 -5.40087891 0.76269531 C-3 0 -3 0 0 0 Z " fill="#3EBAE0" transform="translate(329,136)"/>
<path d="M0 0 C5.37685112 0.61432603 10.63656083 1.45690532 15.9296875 2.59375 C16.64609406 2.74533569 17.36250061 2.89692139 18.10061646 3.05310059 C19.5983467 3.37085733 21.09573065 3.6902505 22.59277344 4.01123047 C24.8890157 4.50300165 27.1865869 4.98816518 29.484375 5.47265625 C30.94539538 5.78346484 32.40633589 6.09464913 33.8671875 6.40625 C34.55360321 6.55106812 35.24001892 6.69588623 35.94723511 6.84509277 C40.76953005 7.88476503 40.76953005 7.88476503 43 9 C42.39908791 11.8962773 41.54026062 14.00952081 39.91796875 16.4765625 C39.26985229 17.47055054 39.26985229 17.47055054 38.60864258 18.48461914 C38.13966553 19.19094482 37.67068848 19.89727051 37.1875 20.625 C36.70627686 21.35904053 36.22505371 22.09308105 35.72924805 22.84936523 C34.15997763 25.23771457 32.58126915 27.61957957 31 30 C30.44086914 30.84288574 29.88173828 31.68577148 29.30566406 32.55419922 C25.8823316 37.71077766 22.44690263 42.85914943 19 48 C18.01 47.67 17.02 47.34 16 47 C15.05078125 45.0390625 15.05078125 45.0390625 14.3125 42.625 C14.06113281 41.83351562 13.80976563 41.04203125 13.55078125 40.2265625 C13 38 13 38 13 35 C12.09048584 35.35191406 11.18097168 35.70382813 10.24389648 36.06640625 C-5.26093922 42.05938277 -20.75355175 48.03042696 -36.49047852 53.39257812 C-42.7596196 55.5373595 -48.87025081 57.91992444 -55 60.4375 C-61.07762308 62.86854923 -67.3033725 64.90465394 -73.49389648 67.02587891 C-80.40201118 69.40680042 -87.19073512 71.97951812 -93.94140625 74.7734375 C-94.95074219 75.17820312 -95.96007812 75.58296875 -97 76 C-97.95777344 76.40476562 -98.91554688 76.80953125 -99.90234375 77.2265625 C-108.8226906 79.453837 -116.63342277 74.8723844 -124.625 71.3125 C-125.80707031 70.79494141 -126.98914063 70.27738281 -128.20703125 69.74414062 C-129.38910156 69.22658203 -130.57117188 68.70902344 -131.7890625 68.17578125 C-133.56458496 67.39968506 -133.56458496 67.39968506 -135.37597656 66.60791016 C-137.8572022 65.50703761 -140.31713697 64.38681588 -142.77246094 63.23193359 C-144.0019389 62.66891426 -145.23143063 62.10592496 -146.4609375 61.54296875 C-147.54938965 61.03145264 -148.6378418 60.51993652 -149.75927734 59.99291992 C-155.62707786 58.19509374 -160.08154705 59.75179466 -165.41369629 62.49987793 C-166.05061401 62.84023071 -166.68753174 63.1805835 -167.34375 63.53125 C-168.75854887 64.26281384 -170.17393458 64.99324365 -171.58984375 65.72265625 C-172.67918213 66.28847412 -172.67918213 66.28847412 -173.79052734 66.86572266 C-177.38334446 68.71016777 -181.01908364 70.46383356 -184.65625 72.21875 C-186.1263259 72.93094041 -187.59637786 73.64318026 -189.06640625 74.35546875 C-191.28357628 75.42813532 -193.50091897 76.50044442 -195.71826172 77.57275391 C-204.30808591 81.72850971 -212.87419881 85.92415438 -221.40132141 90.2071991 C-227.84305656 93.43632161 -234.35178921 96.5158163 -240.87695312 99.57226562 C-241.73611328 99.97767578 -242.59527344 100.38308594 -243.48046875 100.80078125 C-244.23223389 101.15309814 -244.98399902 101.50541504 -245.75854492 101.8684082 C-248.0705629 103.00109816 -248.0705629 103.00109816 -250.47265625 104.48632812 C-252.91965345 105.951879 -255.3784879 107.2014214 -257.95703125 108.41796875 C-258.89772461 108.86430664 -259.83841797 109.31064453 -260.80761719 109.77050781 C-262.29503418 110.47191895 -262.29503418 110.47191895 -263.8125 111.1875 C-272.43729749 115.2622618 -272.43729749 115.2622618 -280.96484375 119.53515625 C-281.69662842 119.91196533 -282.42841309 120.28877441 -283.18237305 120.67700195 C-284.53070545 121.37672104 -285.8748764 122.08453607 -287.21411133 122.80151367 C-288.77306624 123.60877302 -290.38376677 124.31458172 -292 125 C-295.4144987 123.86183377 -295.54699469 123.54356988 -297.078125 120.5078125 C-297.43390625 119.80269531 -297.7896875 119.09757812 -298.15625 118.37109375 C-298.5171875 117.62988281 -298.878125 116.88867188 -299.25 116.125 C-299.62640625 115.39152344 -300.0028125 114.65804687 -300.390625 113.90234375 C-300.74125 113.19464844 -301.091875 112.48695313 -301.453125 111.7578125 C-301.77442383 111.1095752 -302.09572266 110.46133789 -302.42675781 109.79345703 C-303 108 -303 108 -302 105 C-300.23193359 103.82421875 -300.23193359 103.82421875 -297.8984375 102.6875 C-297.02912598 102.25832275 -296.15981445 101.82914551 -295.26416016 101.38696289 C-294.3107373 100.92926514 -293.35731445 100.47156738 -292.375 100 C-291.37645996 99.51072021 -290.37791992 99.02144043 -289.34912109 98.51733398 C-281.88656481 94.87262571 -274.38111744 91.31677631 -266.87646484 87.75976562 C-256.84798715 82.9794199 -246.92861401 77.98348303 -237 73 C-225.57330312 67.26465498 -214.14287609 61.55813609 -202.57470703 56.11181641 C-196.75184468 53.35601584 -190.98542305 50.49947173 -185.234375 47.59765625 C-184.4638681 47.20945206 -183.69336121 46.82124786 -182.89950562 46.42127991 C-179.04746895 44.47947269 -175.19916258 42.53075986 -171.35595703 40.5715332 C-169.94314311 39.85736845 -168.53022469 39.14341038 -167.1171875 38.4296875 C-166.47239441 38.09796036 -165.82760132 37.76623322 -165.16326904 37.42445374 C-157.17861404 33.40967361 -157.17861404 33.40967361 -152.61683655 34.64575195 C-151.38156471 35.18655396 -151.38156471 35.18655396 -150.12133789 35.73828125 C-149.1800856 36.14199951 -148.23883331 36.54571777 -147.26905823 36.96166992 C-146.26374557 37.40744385 -145.25843292 37.85321777 -144.22265625 38.3125 C-142.07878148 39.23178351 -139.9349011 40.15105394 -137.79101562 41.0703125 C-134.42084379 42.53472801 -131.0529192 44.00418671 -127.68579102 45.47558594 C-124.43243274 46.89192991 -121.17174083 48.29022807 -117.91015625 49.6875 C-116.90686783 50.13327393 -115.90357941 50.57904785 -114.86988831 51.03833008 C-113.92548386 51.44204834 -112.98107941 51.8457666 -112.00805664 52.26171875 C-111.18374649 52.62225342 -110.35943634 52.98278809 -109.51014709 53.35424805 C-104.42868585 54.66148758 -99.84887848 52.72286056 -95.09448242 50.92138672 C-93.36967903 50.27265091 -93.36967903 50.27265091 -91.61003113 49.61080933 C-90.35848641 49.13383149 -89.10696634 48.65678897 -87.85546875 48.1796875 C-86.53965382 47.68283066 -85.22363452 47.18651476 -83.90742493 46.69070435 C-81.11324908 45.6371244 -78.32030407 44.58037129 -75.52832031 43.52099609 C-69.00238091 41.04510371 -62.47031068 38.58546875 -55.93858719 36.12488556 C-53.76126049 35.30451484 -51.58416637 34.4835289 -49.40707397 33.66253662 C-37.13115072 29.03589427 -24.82634747 24.4906396 -12.5 20 C-11.63224945 19.68367615 -10.7644989 19.36735229 -9.87045288 19.04144287 C-5.24835352 17.35713219 -0.62496461 15.6764264 4 14 C3.71125 13.15695313 3.4225 12.31390625 3.125 11.4453125 C2.75375 10.34960938 2.3825 9.25390625 2 8.125 C1.62875 7.03445312 1.2575 5.94390625 0.875 4.8203125 C0 2 0 2 0 0 Z " fill="#408CC2" transform="translate(374,68)"/>
<path d="M0 0 C0.36914349 2.24511909 0.36914349 2.24511909 0.36076355 5.09988403 C0.36488754 6.17964508 0.36901154 7.25940613 0.3732605 8.37188721 C0.36247467 9.56159119 0.35168884 10.75129517 0.34057617 11.97705078 C0.34123329 13.85017441 0.34123329 13.85017441 0.34190369 15.76113892 C0.34016847 19.19087425 0.32509618 22.62007164 0.30418181 26.0497117 C0.28546141 29.63182913 0.28366825 33.21395327 0.28010559 36.79611206 C0.27077144 43.58181421 0.24613925 50.36737182 0.21605712 57.15301025 C0.18255561 64.87719398 0.16603782 72.60138453 0.15097082 80.3256228 C0.11959079 96.21716565 0.06680383 112.10856421 0 128 C-1.59361216 128.00910442 -3.18723945 128.01558484 -4.78086853 128.02096558 C-6.11204161 128.02680318 -6.11204161 128.02680318 -7.47010708 128.03275871 C-12.89496696 127.96251407 -18.21491776 126.96888259 -23.5625 126.125 C-24.74908203 125.95097656 -25.93566406 125.77695312 -27.15820312 125.59765625 C-28.28291016 125.42363281 -29.40761719 125.24960937 -30.56640625 125.0703125 C-31.58677979 124.91320801 -32.60715332 124.75610352 -33.65844727 124.59423828 C-34.43115967 124.39813965 -35.20387207 124.20204102 -36 124 C-37.21787089 121.56425821 -37.13380276 119.99182208 -37.14717102 117.26870728 C-37.15432632 116.27045425 -37.16148163 115.27220123 -37.16885376 114.24369812 C-37.17154266 113.14443497 -37.17423157 112.04517181 -37.17700195 110.91259766 C-37.18357315 109.75805588 -37.19014435 108.6035141 -37.19691467 107.41398621 C-37.21667981 103.58067771 -37.22831625 99.74740841 -37.23828125 95.9140625 C-37.24439454 93.95499025 -37.24439454 93.95499025 -37.25063133 91.95634079 C-37.26968193 85.75948236 -37.28391404 79.56263585 -37.2922433 73.36575377 C-37.30202012 66.2099103 -37.32835132 59.0543758 -37.36874419 51.89864123 C-37.39888789 46.36906978 -37.41371044 40.839587 -37.41702431 35.30993497 C-37.4193766 32.00649932 -37.43032512 28.70346974 -37.45348549 25.40010452 C-37.47771876 21.7152136 -37.47694063 18.03113687 -37.4699707 14.34619141 C-37.48918579 12.70336937 -37.48918579 12.70336937 -37.50878906 11.02735901 C-37.50184525 10.02346634 -37.49490143 9.01957367 -37.48774719 7.98526001 C-37.49013555 7.1139979 -37.4925239 6.24273579 -37.49498463 5.34507179 C-36.58700477 1.04336658 -33.34071269 -0.76890791 -29.85546875 -3.1328125 C-18.19132969 -9.77586921 -10.86593971 -7.24395981 0 0 Z " fill="#FDC05E" transform="translate(236,145)"/>
<path d="M0 0 C5.7123613 0.95206022 10.24952904 2.6475132 15.43359375 5.00390625 C21.68503768 7.67579128 25.52718032 6.51587518 31.69335938 4.44580078 C32.50075562 4.17518829 33.30815186 3.90457581 34.14001465 3.62576294 C34.75380981 3.41926117 35.36760498 3.2127594 36 3 C37.18573123 20.9966451 37.15482004 38.98506279 37.13037109 57.01123047 C37.12466518 61.27477252 37.12805639 65.53825222 37.13382339 69.80179214 C37.17232433 103.55148918 37.17232433 103.55148918 36 119 C23.76318058 121.37200161 12.58867141 123 0 123 C0 82.41 0 41.82 0 0 Z " fill="#FEDE5D" transform="translate(246,150)"/>
<path d="M0 0 C0.25738411 14.33394395 0.45040722 28.66752787 0.56993389 43.00331116 C0.62730766 49.66052441 0.70509742 56.3157712 0.82983398 62.97216797 C0.94949161 69.39785991 1.01515405 75.82205913 1.04364967 82.2487793 C1.06395146 84.69856266 1.10359934 87.14826561 1.16303062 89.59741211 C1.63436473 109.82841073 1.63436473 109.82841073 -2.38528442 114.24711609 C-5.20924822 116.34330692 -7.74011948 117.71377325 -11 119 C-12.30265372 119.72539563 -13.60049391 120.45959075 -14.890625 121.20703125 C-15.99921875 121.73683594 -17.1078125 122.26664062 -18.25 122.8125 C-19.36890625 123.35519531 -20.4878125 123.89789063 -21.640625 124.45703125 C-22.74921875 124.96621094 -23.8578125 125.47539062 -25 126 C-25.90975586 126.42804932 -25.90975586 126.42804932 -26.83789062 126.86474609 C-30.209246 128.39873074 -32.21953908 129 -36 129 C-36 90.72 -36 52.44 -36 13 C-28.91077542 9.84923352 -21.875262 6.96774168 -14.625 4.25 C-13.54605469 3.83878906 -12.46710938 3.42757812 -11.35546875 3.00390625 C-10.32292969 2.61589844 -9.29039062 2.22789062 -8.2265625 1.828125 C-7.29408691 1.4765332 -6.36161133 1.12494141 -5.40087891 0.76269531 C-3 0 -3 0 0 0 Z " fill="#FA618E" transform="translate(329,136)"/>
<path d="M0 0 C0 37.29 0 74.58 0 113 C-5.00055742 112.16657376 -8.99817487 111.00276515 -13.5625 109 C-14.2541626 108.69819824 -14.9458252 108.39639648 -15.65844727 108.08544922 C-22.79530453 104.84209229 -30.42049593 100.57950407 -36 95 C-36.09498646 92.56603981 -36.12558417 90.16057048 -36.11352539 87.72631836 C-36.11367142 86.96539383 -36.11381744 86.2044693 -36.1139679 85.42048645 C-36.11326862 82.89357702 -36.10547555 80.36674038 -36.09765625 77.83984375 C-36.09579212 76.0924941 -36.0943682 74.34514393 -36.09336853 72.59779358 C-36.08954293 67.98968066 -36.07971229 63.38159905 -36.06866455 58.77349854 C-36.05845134 54.07491479 -36.0538711 49.37632601 -36.04882812 44.67773438 C-36.03809005 35.45180913 -36.02101313 26.22590716 -36 17 C-31.1970455 14.57385134 -26.39151582 12.15291158 -21.58349609 9.73681641 C-19.94735559 8.91370938 -18.31193512 8.08916949 -16.67724609 7.26318359 C-14.33096977 6.07795122 -11.98217415 4.8978523 -9.6328125 3.71875 C-8.89942657 3.34689575 -8.16604065 2.9750415 -7.41043091 2.59191895 C-2.22774341 0 -2.22774341 0 0 0 Z " fill="#FE5B5C" transform="translate(189,152)"/>
<path d="M0 0 C1.265625 2.50390625 1.265625 2.50390625 2.25 5.5625 C2.58515625 6.57441406 2.9203125 7.58632812 3.265625 8.62890625 C3.50796875 9.41136719 3.7503125 10.19382812 4 11 C-2.38498666 13.97075433 -8.84565209 16.44938204 -15.5078125 18.72265625 C-16.4996907 19.06493256 -17.49156891 19.40720886 -18.51350403 19.75985718 C-21.71609965 20.86436627 -24.92049628 21.96354054 -28.125 23.0625 C-32.54626007 24.58394694 -36.96661981 26.10799588 -41.38671875 27.6328125 C-43.01840752 28.19520882 -43.01840752 28.19520882 -44.68305969 28.76896667 C-51.05966804 30.9708098 -57.42296554 33.20521873 -63.76953125 35.4921875 C-64.48598816 35.74981369 -65.20244507 36.00743988 -65.94061279 36.27287292 C-69.15870631 37.43134984 -72.3735028 38.59747666 -75.58447266 39.77563477 C-78.70832048 40.90347784 -81.84263521 41.97030277 -85 43 C-85.8448999 43.2988208 -86.6897998 43.5976416 -87.56030273 43.90551758 C-95.36111095 46.16329592 -101.10204471 43.13799449 -108.1875 39.8125 C-109.32380859 39.30396484 -110.46011719 38.79542969 -111.63085938 38.27148438 C-113.81989497 37.28992847 -116.00431486 36.29799545 -118.18334961 35.29443359 C-120.34651014 34.30032099 -122.51195848 33.33200668 -124.703125 32.40234375 C-127.3609376 31.27182867 -129.99522204 30.10662051 -132.62890625 28.921875 C-134.2732428 28.19747454 -135.91777718 27.473523 -137.5625 26.75 C-138.38685547 26.37359375 -139.21121094 25.9971875 -140.06054688 25.609375 C-144.78280328 23.5558918 -147.9084274 22.32108306 -153 24 C-155.68486829 25.07482413 -158.27822905 26.29086029 -160.875 27.5625 C-161.5246875 27.87251953 -162.174375 28.18253906 -162.84375 28.50195312 C-166.93030437 30.46487671 -170.9847794 32.49080802 -175.03707886 34.52333069 C-187.23368022 40.64078499 -199.49401327 46.62765065 -211.75 52.625 C-215.15700745 54.29241357 -218.56391124 55.96003745 -221.97052002 57.62826538 C-224.07180345 58.65725572 -226.17330784 59.68579506 -228.27508545 60.71377563 C-229.24359436 61.18801971 -230.21210327 61.66226379 -231.20996094 62.15087891 C-232.62529114 62.84059784 -232.62529114 62.84059784 -234.06921387 63.54425049 C-236.15685604 64.58120233 -238.23088028 65.64576413 -240.29504395 66.72869873 C-241.90518372 67.56754608 -241.90518372 67.56754608 -243.54785156 68.42333984 C-245.00701996 69.19791031 -245.00701996 69.19791031 -246.4956665 69.98812866 C-249 71 -249 71 -252 70 C-250.06488033 68.78785827 -248.12674194 67.58053573 -246.1875 66.375 C-245.10855469 65.70210938 -244.02960938 65.02921875 -242.91796875 64.3359375 C-239.00158674 61.95657424 -234.98081351 59.78287653 -230.95141602 57.60205078 C-218.04824229 50.59811117 -205.23934003 43.39957446 -192.61401367 35.90600586 C-184.92780288 31.34720478 -177.17881491 26.89769372 -169.43383789 22.43969727 C-168.38703857 21.83697998 -167.34023926 21.2342627 -166.26171875 20.61328125 C-165.2154834 20.0301416 -164.16924805 19.44700195 -163.09130859 18.84619141 C-159.9530775 17.0529529 -159.9530775 17.0529529 -157.10009766 14.77490234 C-154.04499459 12.54996231 -151.63441822 11.0615599 -148 10 C-142.99553512 10.82908164 -138.80392148 12.71729712 -134.26104736 14.91900635 C-127.66921909 18.07052128 -120.84351027 20.75539301 -114.09985352 23.56323242 C-112.31630147 24.31639677 -110.53953334 25.08582016 -108.76977539 25.87084961 C-96.66713943 31.49070957 -96.66713943 31.49070957 -83.79296875 30.5703125 C-81.92432239 29.74693347 -80.05704974 28.91842425 -78.21914673 28.02853394 C-74.65817848 26.37809026 -70.98357604 25.03515724 -67.31681824 23.6396637 C-61.81639044 21.53946983 -56.34891177 19.3556499 -50.875 17.1875 C-43.29071757 14.19109591 -35.70348074 11.2023782 -28.11169434 8.22503662 C-25.01905509 7.00750176 -21.93190004 5.77672595 -18.84472656 4.54541016 C-16.94098853 3.79660706 -15.03702852 3.04836799 -13.1328125 2.30078125 C-12.2644577 1.95009079 -11.39610291 1.59940033 -10.50143433 1.23808289 C-9.70061432 0.92659805 -8.89979431 0.61511322 -8.07470703 0.29418945 C-7.0334819 -0.11913887 -7.0334819 -0.11913887 -5.97122192 -0.54081726 C-3.59404142 -1.09456529 -2.25556513 -0.91163194 0 0 Z " fill="#43C9E1" transform="translate(362,64)"/>
<path d="M0 0 C-0.33 0.99 -0.66 1.98 -1 3 C0.32 3.66 1.64 4.32 3 5 C2.2009877 5.39011009 2.2009877 5.39011009 1.38583374 5.7881012 C-4.22884105 8.52957424 -9.84305988 11.27197939 -15.45703125 14.01489258 C-17.54383181 15.03433068 -19.63074313 16.05354209 -21.71777344 17.07250977 C-23.74535792 18.06248809 -25.77276446 19.05283093 -27.79998779 20.04354858 C-29.78417979 21.0129556 -31.7689169 21.98124769 -33.75421143 22.94839478 C-38.01770017 25.02960142 -42.27001918 27.12330169 -46.47949219 29.31201172 C-47.45829849 29.81763893 -47.45829849 29.81763893 -48.45687866 30.33348083 C-50.13109904 31.20338634 -51.79901636 32.08539428 -53.46630859 32.96850586 C-56 34 -56 34 -59 33 C-57.06488033 31.78785827 -55.12674194 30.58053573 -53.1875 29.375 C-52.10855469 28.70210937 -51.02960938 28.02921875 -49.91796875 27.3359375 C-46.01432099 24.96455301 -42.00719576 22.79763336 -37.9909668 20.62402344 C-32.7401142 17.77293606 -27.52772209 14.8530966 -22.3125 11.9375 C-21.23677734 11.33873047 -20.16105469 10.73996094 -19.05273438 10.12304688 C-14.41934098 7.53254585 -9.8261634 4.93027175 -5.35546875 2.06640625 C-2 0 -2 0 0 0 Z " fill="#6ABAE8" transform="translate(169,101)"/>
<path d="M0 0 C0.99 0.495 0.99 0.495 2 1 C-14.84186826 9.93965484 -31.84320342 18.45812772 -49.02365112 26.72622681 C-59.12806075 31.59037422 -69.18627796 36.53973158 -79.19921875 41.58984375 C-82.25215399 43.12936848 -85.31459686 44.6441514 -88.39453125 46.12890625 C-89.3836853 46.60952515 -89.3836853 46.60952515 -90.39282227 47.09985352 C-92.09777618 47.92621938 -93.80652296 48.74474783 -95.515625 49.5625 C-98.25477334 50.90291971 -98.25477334 50.90291971 -100 54 C-100.33 52.68 -100.66 51.36 -101 50 C-89.7694185 43.9301714 -78.40328066 38.21030916 -66.88729858 32.70132446 C-53.96342046 26.51478481 -41.15309823 20.1088083 -28.3581543 13.66040039 C-21.09812781 10.00592663 -13.82502179 6.37761491 -6.4921875 2.87109375 C-5.86321564 2.56365738 -5.23424377 2.25622101 -4.58621216 1.93946838 C-3.08518504 1.23101641 -1.54496269 0.60669343 0 0 Z " fill="#87C8E8" transform="translate(172,124)"/>
<path d="M0 0 C-0.84087158 0.39771606 -0.84087158 0.39771606 -1.69873047 0.8034668 C-18.29605002 8.66650139 -34.74840359 16.80107502 -51.14111328 25.08154297 C-57.72371937 28.39538347 -64.38891863 31.53534418 -71.04589844 34.69628906 C-75.7114334 36.91974292 -80.36007236 39.16112916 -84.953125 41.53125 C-85.68660156 41.90862305 -86.42007813 42.28599609 -87.17578125 42.67480469 C-88.52669321 43.37506555 -89.8733281 44.08366022 -91.21484375 44.80175781 C-92.77352373 45.60899175 -94.38400229 46.3146816 -96 47 C-96.99 46.67 -97.98 46.34 -99 46 C-98.67 45.34 -98.34 44.68 -98 44 C-96.33844702 43.64204665 -94.67066353 43.31268554 -93 43 C-91.41788761 42.33093839 -89.86025311 41.60193605 -88.32763672 40.82617188 C-87.42834442 40.37479858 -86.52905212 39.92342529 -85.60250854 39.45837402 C-84.15571213 38.72101013 -84.15571213 38.72101013 -82.6796875 37.96875 C-81.66641388 37.45880493 -80.65314026 36.94885986 -79.60916138 36.42346191 C-76.36155021 34.78796576 -73.11808556 33.14444933 -69.875 31.5 C-65.64482332 29.36141425 -61.41286349 27.22639228 -57.1796875 25.09375 C-56.14492783 24.57205231 -55.11016815 24.05035461 -54.04405212 23.5128479 C-46.13317488 19.53747423 -38.1626676 15.70538654 -30.14233398 11.95654297 C-22.2717366 8.26745132 -14.3876031 4.45362909 -6.80078125 0.2109375 C-3.72664138 -1.11818852 -3.04289759 -0.95988663 0 0 Z " fill="#8ACCEB" transform="translate(178,146)"/>
<path d="M0 0 C11.87076555 5.51142686 21.78355584 11.84858179 32 20 C31.01 20.33 30.02 20.66 29 21 C27.50097656 19.98950195 27.50097656 19.98950195 25.890625 18.42578125 C21.8374025 14.74016174 17.44093039 11.99052316 12.75 9.1875 C11.94820313 8.69830078 11.14640625 8.20910156 10.3203125 7.70507812 C5.83476668 4.98952213 5.83476668 4.98952213 1 3 C1 9.27 1 15.54 1 22 C0.67 22 0.34 22 0 22 C0 14.74 0 7.48 0 0 Z " fill="#62ECE5" transform="translate(340,176)"/>
<path d="M0 0 C0.53109375 0.33773438 1.0621875 0.67546875 1.609375 1.0234375 C2.31578125 1.46945312 3.0221875 1.91546875 3.75 2.375 C4.79414063 3.03628906 4.79414063 3.03628906 5.859375 3.7109375 C7.86517383 4.91880906 9.89178296 5.98387737 12 7 C9.08089535 9.91910465 5.99249842 10.84530584 1.91796875 11.20703125 C-4.58794655 10.74543351 -14.35338967 8.64661033 -19 4 C-9.78365171 5.71212794 -9.78365171 5.71212794 -5.9375 7.125 C-1.92910732 8.31898931 1.84905842 8.16603766 6 8 C5.195625 7.236875 4.39125 6.47375 3.5625 5.6875 C1 3 1 3 0 0 Z " fill="#8B9FEF" transform="translate(490,385)"/>
<path d="M0 0 C0 0.66 0 1.32 0 2 C-0.99 2 -1.98 2 -3 2 C-3 2.66 -3 3.32 -3 4 C-4.68125012 5.19542478 -6.42248083 6.30712843 -8.1875 7.375 C-14.72384125 11.34755546 -19.60519371 15.50475866 -24.44921875 21.390625 C-24.96097656 21.92171875 -25.47273438 22.4528125 -26 23 C-26.66 23 -27.32 23 -28 23 C-28.268125 23.61875 -28.53625 24.2375 -28.8125 24.875 C-30 27 -30 27 -33 29 C-28.90913582 19.73726609 -10.93856462 0 0 0 Z " fill="#67E9E5" transform="translate(130,183)"/>
<path d="M0 0 C2 1 2 1 3 3 C2.37955811 3.29245605 1.75911621 3.58491211 1.11987305 3.88623047 C-1.69208036 5.21337351 -4.50230246 6.54414324 -7.3125 7.875 C-8.28896484 8.33519531 -9.26542969 8.79539063 -10.27148438 9.26953125 C-11.67817383 9.93662109 -11.67817383 9.93662109 -13.11328125 10.6171875 C-14.40939331 11.22989502 -14.40939331 11.22989502 -15.73168945 11.85498047 C-18.1840892 13.03588682 -18.1840892 13.03588682 -21 15 C-21.99 14.67 -22.98 14.34 -24 14 C-17.66859723 10.03406567 -11.32176545 6.10651567 -4.8125 2.4375 C-3.93207031 1.94121094 -3.05164063 1.44492188 -2.14453125 0.93359375 C-1.43683594 0.62550781 -0.72914063 0.31742187 0 0 Z " fill="#9EBCEF" transform="translate(134,120)"/>
<path d="M0 0 C0.66 0.33 1.32 0.66 2 1 C2 7.93 2 14.86 2 22 C1.34 22.33 0.68 22.66 0 23 C0 16.4 0 9.8 0 3 C-1.98 3.99 -3.96 4.98 -6 6 C-6.99 5.67 -7.98 5.34 -9 5 C-7.54735962 4.1361871 -6.0876837 3.28419546 -4.625 2.4375 C-3.40683594 1.72400391 -3.40683594 1.72400391 -2.1640625 0.99609375 C-1.44992188 0.66738281 -0.73578125 0.33867187 0 0 Z " fill="#74EFE8" transform="translate(139,177)"/>
<path d="M0 0 C0 0.66 0 1.32 0 2 C-0.93066284 2.42297363 -0.93066284 2.42297363 -1.88012695 2.85449219 C-4.69614293 4.14190415 -7.50426097 5.44571677 -10.3125 6.75 C-11.28896484 7.1934375 -12.26542969 7.636875 -13.27148438 8.09375 C-14.20927734 8.53203125 -15.14707031 8.9703125 -16.11328125 9.421875 C-16.97735596 9.81987305 -17.84143066 10.21787109 -18.73168945 10.62792969 C-21.19871718 12.12020133 -22.44092721 13.6000539 -24 16 C-24.33 14.68 -24.66 13.36 -25 12 C-21.91702588 10.37431783 -18.83355811 8.74957416 -15.75 7.125 C-14.87730469 6.66480469 -14.00460938 6.20460937 -13.10546875 5.73046875 C-12.26113281 5.28574219 -11.41679688 4.84101563 -10.546875 4.3828125 C-9.77182617 3.97434082 -8.99677734 3.56586914 -8.19824219 3.14501953 C-7.47282227 2.76716309 -6.74740234 2.38930664 -6 2 C-5.2874707 1.62085449 -4.57494141 1.24170898 -3.84082031 0.85107422 C-2 0 -2 0 0 0 Z " fill="#93D9F4" transform="translate(96,162)"/>
<path d="M0 0 C0.66 0.33 1.32 0.66 2 1 C1.67 1.33 1.34 1.66 1 2 C1.66 2.66 2.32 3.32 3 4 C1.42466914 4.86883706 -0.16064509 5.71959068 -1.75 6.5625 C-2.63171875 7.03816406 -3.5134375 7.51382813 -4.421875 8.00390625 C-7.20701188 9.07998186 -8.26980214 9.06528748 -11 8 C-7.71644638 4.32241995 -4.37221763 2.18610882 0 0 Z " fill="#7DB3EC" transform="translate(146,113)"/>
<path d="M0 0 C0.33 0 0.66 0 1 0 C1 2.64 1 5.28 1 8 C3.92101014 6.80995883 5.29946228 5.67807805 7.5 3.3125 C8.325 2.549375 9.15 1.78625 10 1 C12.15625 1.35546875 12.15625 1.35546875 14 2 C12.8803014 3.00593243 11.7540588 4.0045849 10.625 5 C9.68527344 5.8353125 9.68527344 5.8353125 8.7265625 6.6875 C7 8 7 8 5 8 C5 8.66 5 9.32 5 10 C3.35 9.67 1.7 9.34 0 9 C0 6.03 0 3.06 0 0 Z " fill="#7EBADE" transform="translate(361,302)"/>
<path d="M0 0 C0.556875 0.226875 1.11375 0.45375 1.6875 0.6875 C0.72378506 3.09678735 0.03539837 4.44757009 -2.125 5.9375 C-4.63571365 6.79831611 -6.67598649 6.83397297 -9.3125 6.6875 C-7.70234959 2.442558 -4.80443663 -0.64924819 0 0 Z " fill="#68AFE9" transform="translate(155.3125,109.3125)"/>
<path d="M0 0 C0.66 0 1.32 0 2 0 C2.33 1.32 2.66 2.64 3 4 C2.01 3.67 1.02 3.34 0 3 C0.33 8.28 0.66 13.56 1 19 C-2.17269141 14.24096288 -2.15175036 9.59337875 -1.625 4.0625 C-1 1 -1 1 0 0 Z " fill="#81DEEA" transform="translate(141,231)"/>
<path d="M0 0 C2.5 1.375 2.5 1.375 5 3 C5 3.66 5 4.32 5 5 C1.37 5.66 -2.26 6.32 -6 7 C-5 5 -5 5 -2.4375 3.5 C-1.633125 3.005 -0.82875 2.51 0 2 C0 1.34 0 0.68 0 0 Z " fill="#84B9E2" transform="translate(501,317)"/>
<path d="M0 0 C4.98427463 -0.62303433 8.88575912 1.36611682 13 4 C13.33 4.66 13.66 5.32 14 6 C9.27934033 4.45730076 4.58335908 2.92205381 0 1 C0 0.67 0 0.34 0 0 Z " fill="#7AC9EB" transform="translate(246,99)"/>
<path d="M0 0 C0.53109375 0.33773438 1.0621875 0.67546875 1.609375 1.0234375 C2.31578125 1.46945312 3.0221875 1.91546875 3.75 2.375 C4.79414063 3.03628906 4.79414063 3.03628906 5.859375 3.7109375 C7.86517383 4.91880906 9.89178296 5.98387737 12 7 C9.9375 7.875 9.9375 7.875 7 8 C4.35211313 6.32045192 2.0697273 4.35602963 0 2 C0 1.34 0 0.68 0 0 Z " fill="#8FA0E3" transform="translate(490,385)"/>
<path d="M0 0 C2.97 0.495 2.97 0.495 6 1 C5.43628586 4.26954202 4.50037734 5.82575883 2 8 C2.04125 7.05125 2.0825 6.1025 2.125 5.125 C2.34973818 1.89755144 2.34973818 1.89755144 0 0 Z " fill="#6992BE" transform="translate(411,76)"/>
<path d="M0 0 C0 0.66 0 1.32 0 2 C0.99 2.66 1.98 3.32 3 4 C1.02 4.66 -0.96 5.32 -3 6 C-3.33 4.35 -3.66 2.7 -4 1 C-2 0 -2 0 0 0 Z " fill="#7EBEEA" transform="translate(159,107)"/>
<path d="M0 0 C-3.28463659 2.18975773 -6.20696275 2.99806563 -10 4 C-9.67 3.01 -9.34 2.02 -9 1 C-6.04335481 -0.4783226 -3.25770263 -0.06032783 0 0 Z " fill="#7ACFE7" transform="translate(314,93)"/>
</svg>
